<svg width="59" height="50" viewBox="0 0 59 50" fill="none" xmlns="http://www.w3.org/2000/svg">
<g opacity="0.9" clip-path="url(#clip0_817_9669)">
<path d="M29.5266 38.064C30.1469 38.4276 30.6281 38.9089 30.9917 39.5185C31.3553 40.1281 31.5264 40.8019 31.5264 41.5292C31.5264 42.2565 31.3446 42.9303 30.9917 43.5506C30.6281 44.1709 30.1469 44.6522 29.5266 45.0158C28.9063 45.3795 28.2326 45.5506 27.5054 45.5506H22.2224V49.8821H19.3457V37.5078H27.5161C28.2433 37.5078 28.917 37.6896 29.5373 38.0426L29.5266 38.064ZM28.0294 43.0265C28.4358 42.6201 28.639 42.1174 28.639 41.5292C28.639 40.941 28.4358 40.4597 28.0294 40.0533C27.623 39.6469 27.1311 39.4436 26.5536 39.4436H22.2224V43.6362H26.5536C27.1311 43.6362 27.623 43.4329 28.0294 43.0265Z" fill="#42F5C4"/>
<path d="M43.054 49.8919L39.0972 40.5015L35.9317 47.9668H39.4715L40.3698 49.8919H32.2422L37.4931 37.5176H40.6799L45.9308 49.8919H43.054Z" fill="#42F5C4"/>
<path d="M58.4331 43.6031C58.0588 44.2235 57.5562 44.7154 56.9252 45.0577L58.9892 49.8919H56.1125L54.241 45.5604H49.6852V49.8919H46.7871V37.5176H54.9575C55.6847 37.5176 56.3584 37.6994 56.9787 38.0523C57.599 38.416 58.0802 38.8973 58.4438 39.5069C58.8074 40.1165 58.9785 40.7903 58.9785 41.5176C58.9785 42.2448 58.7967 42.9614 58.4224 43.5817L58.4331 43.6031ZM49.6959 43.6352H54.0164C54.5939 43.6352 55.0858 43.432 55.5029 43.0256C55.92 42.6192 56.1232 42.1165 56.1232 41.5283C56.1232 40.94 55.92 40.4588 55.5029 40.0523C55.0858 39.6459 54.5939 39.4427 54.0164 39.4427H49.6959V43.6352Z" fill="#42F5C4"/>
<path d="M1.34756 3.43338L15.4532 20.4066C15.4532 20.4066 16.0521 21.4655 15.3677 22.4922C14.6832 23.5189 6.72675 32.4066 4.39541 36.0216C2.06407 39.6366 -2.02112 45.4227 1.16576 48.7917C4.35264 52.1606 11.0793 47.4441 11.721 46.9735C12.3626 46.5029 15.2928 43.8398 15.2928 43.8398C14.7581 44.4173 6.72675 49.4655 3.94626 48.7382C0.727296 47.8933 0.791462 44.043 4.35264 39.412C7.20799 35.7008 11.9455 30.3104 14.0523 27.9361C16.1591 25.5617 25.4416 16.5885 28.436 12.2783C31.4304 7.96814 32.1041 7.25156 31.4304 6.35316C30.7567 5.45477 29.9011 5.96814 28.9493 7.45477C27.9976 8.9414 24.0193 13.6366 22.6504 14.9628C21.3992 16.182 19.9555 17.7542 18.7684 17.4013C17.699 17.0911 13.6352 11.1339 11.999 9.28365C10.6408 7.75423 8.65171 4.68472 7.64645 4.03231C6.6412 3.3799 6.98341 2.86653 1.34756 3.43338Z" fill="url(#paint0_linear_817_9669)"/>
<path d="M18.7586 7.30447C19.5087 7.30447 20.1167 6.69634 20.1167 5.94618C20.1167 5.19602 19.5087 4.58789 18.7586 4.58789C18.0085 4.58789 17.4004 5.19602 17.4004 5.94618C17.4004 6.69634 18.0085 7.30447 18.7586 7.30447Z" fill="url(#paint1_linear_817_9669)"/>
<path d="M4.51367 44.5779C4.51367 44.5779 13.6145 31.1019 18.6193 26.5886C23.6242 22.0752 29.9124 16.3212 32.3293 12.5351C34.7462 8.74898 38.7459 2.77037 34.0404 1.23026C29.335 -0.309844 21.0683 4.96288 21.0683 4.96288C21.0683 4.96288 30.1691 -1.98899 35.42 0.556467C40.6708 3.11262 34.158 13.5725 30.3188 18.1821C26.4796 22.7918 23.6029 25.1768 24.8648 26.5886C26.1267 28.0003 31.7518 34.2463 31.9336 35.273C31.9336 35.273 28.3939 35.9361 27.3351 35.1233C26.2764 34.3105 22.3623 28.1287 20.2556 29.8185C18.1488 31.5083 5.96809 43.7329 4.51367 44.5779Z" fill="url(#paint2_linear_817_9669)"/>
</g>
<defs>
<linearGradient id="paint0_linear_817_9669" x1="8.90239e-05" y1="26.5992" x2="31.6871" y2="26.5992" gradientUnits="userSpaceOnUse">
<stop stop-color="#59FB77"/>
<stop offset="0.23" stop-color="#59FBA6"/>
<stop offset="1" stop-color="#2AF0E1"/>
</linearGradient>
<linearGradient id="paint1_linear_817_9669" x1="17.4004" y1="5.94618" x2="20.1167" y2="5.94618" gradientUnits="userSpaceOnUse">
<stop stop-color="#59FB77"/>
<stop offset="0.23" stop-color="#59FBA6"/>
<stop offset="1" stop-color="#2AF0E1"/>
</linearGradient>
<linearGradient id="paint2_linear_817_9669" x1="4.51367" y1="22.2891" x2="37.3877" y2="22.2891" gradientUnits="userSpaceOnUse">
<stop stop-color="#59FB77"/>
<stop offset="0.23" stop-color="#59FBA6"/>
<stop offset="1" stop-color="#2AF0E1"/>
</linearGradient>
<clipPath id="clip0_817_9669">
<rect width="59" height="50" fill="white"/>
</clipPath>
</defs>
</svg>
